<?xml version="1.0"?><svg version="1.1" id="圖層_1" xmlns="http://www.w3.org/2000/svg" x="0" y="0" viewBox="0 0 100 100" xml:space="preserve"><path fill="#e0e0e0" stroke="#333" stroke-width="3.5" stroke-linecap="round" stroke-miterlimit="10" d="M48.413 67.79l-16.56-9.561-9.173 15.889 12.326 16.893z"/><path d="M44.856 77.144L25.53 65.987a3.51 3.51 0 0 1-1.285-4.795l24.736-42.845c4.05-7.015 13.021-9.419 20.037-5.369h0c7.015 4.05 9.419 13.021 5.369 20.037L49.651 75.859a3.51 3.51 0 0 1-4.795 1.285z" fill="#a0c8d7" stroke="#333" stroke-width="3.5" stroke-linecap="round" stroke-miterlimit="10"/><path d="M39.361 73.972l-8.335-4.812L57.8 22.785a4.812 4.812 0 0 1 6.574-1.761h0a4.812 4.812 0 0 1 1.761 6.574L39.361 73.972z" fill="#e0e0e0" stroke="#333" stroke-width="3.5" stroke-linecap="round" stroke-miterlimit="10"/><circle transform="rotate(-60 54.983 37.292)" cx="54.982" cy="37.29" fill="#77a4bd" stroke="#333" stroke-width="3.5" stroke-linecap="round" stroke-miterlimit="10" r="7.823"/><path d="M28.843 82.564l6.163 8.447 8.467-14.665 1.383.798a3.51 3.51 0 0 0 4.795-1.285l24.736-42.844c4.05-7.015 1.647-15.986-5.369-20.037" opacity=".2" stroke="#000" stroke-width="3.5" stroke-miterlimit="10"/><metadata xmlns:d="https://loading.io/stock/">
<d:name>box cutter</d:name>
<d:tags>box cutter,utility knife,art knife,penknife,snap-off knife,stationery,amputate</d:tags>
<d:license>by</d:license>
<d:slug>z0uy2c</d:slug>
</metadata></svg>